<?xml version="1.0" encoding="UTF-8"?>
<svg version="1.1" xmlns="http://www.w3.org/2000/svg" width="334" height="254">
<path d="M0 0 C0.886875 0.763125 1.77375 1.52625 2.6875 2.3125 C6.24577819 6.44779628 8.56646499 11.13963393 11 16 C11.39574219 16.77988281 11.79148438 17.55976562 12.19921875 18.36328125 C16.50253804 27.36985657 17.36857464 36.49102016 17.3125 46.375 C17.30831055 47.38578613 17.30412109 48.39657227 17.29980469 49.43798828 C17.19075655 56.63864561 16.55179564 63.20981419 14 70 C13.56494141 71.16789062 13.56494141 71.16789062 13.12109375 72.359375 C9.99744833 79.93976974 5.99647481 87.35245799 0 93 C-0.82408073 90.64397432 -1.13166634 89.393468 -0.328125 86.9921875 C0.20554688 85.94417969 0.20554688 85.94417969 0.75 84.875 C5.14447127 76.18444115 6.5354862 67.8572722 6.4375 58.1875 C6.42505249 56.60038208 6.42505249 56.60038208 6.41235352 54.98120117 C6.2393776 46.97198544 5.36552559 40.35207078 2 33 C1.525625 31.93007812 1.05125 30.86015625 0.5625 29.7578125 C-7.07566645 14.15098201 -19.93794316 2.60949994 -36 -4 C-49.38875787 -8.38376792 -67.81104829 -11.59447585 -81 -5 C-79.76765625 -4.96261719 -78.5353125 -4.92523438 -77.265625 -4.88671875 C-63.85316054 -4.39126793 -52.38540666 -2.39806441 -40 3 C-40 3.66 -40 4.32 -40 5 C-39.278125 5.268125 -38.55625 5.53625 -37.8125 5.8125 C-33.09865929 7.8027883 -29.38152362 10.11750992 -26 14 C-26 14.66 -26 15.32 -26 16 C-25.34 16 -24.68 16 -24 16 C-21.72694686 18.45106332 -19.89504174 21.25174041 -18 24 C-17.47664062 24.74765625 -16.95328125 25.4953125 -16.4140625 26.265625 C-8.6688656 38.13897253 -6.82115909 51.50358324 -6.9375 65.375 C-6.94201172 66.39722656 -6.94652344 67.41945313 -6.95117188 68.47265625 C-6.962897 70.98183194 -6.97930824 73.4908849 -7 76 C-8.32 76 -9.64 76 -11 76 C-12 73 -12 73 -11.75 69.75 C-11.64711809 58.55644829 -17.89833855 46.99894928 -24 38 C-24.47566406 37.29617187 -24.95132813 36.59234375 -25.44140625 35.8671875 C-33.03019078 26.07904244 -46.06338762 17.92754314 -58 15 C-59.19882813 14.69449219 -60.39765625 14.38898437 -61.6328125 14.07421875 C-80.89033286 9.60239917 -99.02880107 12.99656822 -116 23 C-118.32785172 24.80277239 -120.45541371 26.64611573 -122.546875 28.71484375 C-124 30 -124 30 -126 30 C-126 31.32 -126 32.64 -126 34 C-126.99 34 -127.98 34 -129 34 C-128.505 34.495 -128.505 34.495 -128 35 C-123.35536823 33.08400379 -123.35536823 33.08400379 -118.87109375 30.828125 C-101.76550355 21.45044103 -83.98356105 21.46411477 -65.58984375 26.77734375 C-60.48642322 28.51550548 -56.32781912 30.81301755 -52 34 C-50.73929688 34.91458984 -50.73929688 34.91458984 -49.453125 35.84765625 C-41.00124339 42.28901451 -34.53517445 49.47319872 -29.31640625 58.73046875 C-27.95021169 61.19976012 -27.95021169 61.19976012 -25.6875 64 C-23.32198876 68.20535332 -23.18809562 72.24118091 -23 77 C-25.375 76.75 -25.375 76.75 -28 76 C-29.45713624 73.84898936 -30 72.59713506 -30 70 C-31.30571668 66.78592818 -31.97928051 66.01381299 -35 64 C-35.66 63.01 -36.32 62.02 -37 61 C-39.54045287 57.46321928 -39.54045287 57.46321928 -43 55 C-43 54.34 -43 53.68 -43 53 C-43.5775 52.71898438 -44.155 52.43796875 -44.75 52.1484375 C-46.89352484 51.0543467 -48.93222178 49.85470144 -51 48.625 C-67.191198 39.72902573 -85.95806251 37.95991669 -103.625 43.04296875 C-114.32490334 46.60575984 -122.57600692 51.62900605 -131 59 C-131.66 59 -132.32 59 -133 59 C-133.26554687 59.59554687 -133.53109375 60.19109375 -133.8046875 60.8046875 C-135.03268456 63.06002851 -136.28587269 64.35430534 -138.125 66.125 C-145.10605767 73.85246006 -148.91020121 85.18165461 -152 95 C-152.99 94.67 -153.98 94.34 -155 94 C-156.42567596 89.29433751 -155.517254 85.22942578 -154.4375 80.5625 C-154.16341309 79.3703186 -154.16341309 79.3703186 -153.88378906 78.15405273 C-150.91228356 65.90580176 -145.81246004 55.91900447 -138 46 C-136.44356699 44.00674792 -135.22234694 42.2321118 -134 40 C-134.30027117 38.32706064 -134.63557767 36.66014616 -135 35 C-133.43582756 30.30748267 -131.65991641 27.29392476 -128 24 C-127.67 23.34 -127.34 22.68 -127 22 C-126.34 22 -125.68 22 -125 22 C-125 21.01 -125 20.02 -125 19 C-124.34 19 -123.68 19 -123 19 C-123 18.34 -123 17.68 -123 17 C-118.52941176 13 -118.52941176 13 -116 13 C-115.67 12.01 -115.34 11.02 -115 10 C-109.65799725 5.52762561 -103.58357637 2.75649495 -97.3046875 -0.15625 C-93.88003196 -2.06693252 -91.63088399 -4.11632644 -89 -7 C-88.34 -7.66 -87.68 -8.32 -87 -9 C-86.01 -9 -85.02 -9 -84 -9 C-84 -9.66 -84 -10.32 -84 -11 C-54.09981959 -23.68901561 -24.5227348 -23.66139908 0 0 Z M-83 -5 C-82 -3 -82 -3 -82 -3 Z " fill="#020101" transform="translate(181,38)"/>
<path d="M0 0 C0.495 0.99 0.495 0.99 1 2 C0.67 2.66 0.34 3.32 0 4 C-2.92271618 4.52019537 -5.80808573 4.93996762 -8.75 5.3125 C-25.70426505 7.73952008 -40.12542334 14.4504918 -52 27 C-53.83874511 29.59663536 -55.39789337 32.24637923 -57 35 C-57.66 35 -58.32 35 -59 35 C-59.66 37.31 -60.32 39.62 -61 42 C-61.66 42 -62.32 42 -63 42 C-63.12117188 42.73605469 -63.24234375 43.47210938 -63.3671875 44.23046875 C-63.53476563 45.20628906 -63.70234375 46.18210938 -63.875 47.1875 C-64.03742188 48.15042969 -64.19984375 49.11335938 -64.3671875 50.10546875 C-64.98167468 52.91617863 -65.90070293 55.34927562 -67 58 C-69.01072576 68.25470139 -67.725 77.47405173 -65.65625 87.55859375 C-65 91 -65 91 -65 94 C-64.34 94 -63.68 94 -63 94 C-62.01 97.63 -61.02 101.26 -60 105 C-59.34 105 -58.68 105 -58 105 C-57.525625 105.94875 -57.05125 106.8975 -56.5625 107.875 C-54.01750418 112.40251069 -50.50902328 115.94397744 -46.92578125 119.66796875 C-45.07456672 121.90970318 -44.38439803 123.16587893 -44 126 C-50.13621953 124.83623423 -53.56080367 123.43919633 -58 119 C-58 118.34 -58 117.68 -58 117 C-58.58136719 116.74089844 -59.16273437 116.48179687 -59.76171875 116.21484375 C-67.72804698 111.89106002 -72.56631316 103.59004962 -77 96 C-77.67933594 94.9275 -78.35867187 93.855 -79.05859375 92.75 C-81.43184838 88.56066492 -82.4071475 84.26060684 -83.3125 79.5625 C-83.48201172 78.68650146 -83.65152344 77.81050293 -83.82617188 76.90795898 C-87.01559931 58.8361775 -82.73520139 42.49500731 -73 27 C-72.02784606 25.97290861 -71.03234545 24.96657275 -70 24 C-69.34 23.01 -68.68 22.02 -68 21 C-67.01 20.67 -66.02 20.34 -65 20 C-65 19.34 -65 18.68 -65 18 C-64.34 18 -63.68 18 -63 18 C-62.67 17.01 -62.34 16.02 -62 15 C-53.37541698 6.35119062 -40.64941411 2.3812773 -29 0 C-28.17628906 -0.18691406 -27.35257813 -0.37382813 -26.50390625 -0.56640625 C-18.1571496 -2.01178845 -8.31220493 -1.49591464 0 0 Z " fill="#020202" transform="translate(133,116)"/>
<path d="M0 0 C15.13094483 -0.65786717 31.77947651 4.37475048 44.00390625 13.16015625 C44.97328125 13.84078125 45.94265625 14.52140625 46.94140625 15.22265625 C49.09738662 17.24797114 49.69325464 18.26074122 50.00390625 21.16015625 C48.68390625 20.83015625 47.36390625 20.50015625 46.00390625 20.16015625 C45.67390625 20.82015625 45.34390625 21.48015625 45.00390625 22.16015625 C43.50390625 20.78515625 43.50390625 20.78515625 42.00390625 19.16015625 C42.00390625 18.50015625 42.00390625 17.84015625 42.00390625 17.16015625 C40.31799783 16.67541947 38.6300808 16.19766699 36.94140625 15.72265625 C36.00167969 15.45582031 35.06195313 15.18898438 34.09375 14.9140625 C14.4816465 10.12880842 -3.51739323 12.94892117 -20.80859375 22.91015625 C-22.53797193 23.9931519 -24.26716937 25.07643628 -25.99609375 26.16015625 C-26.74375 26.51980469 -27.49140625 26.87945312 -28.26171875 27.25 C-30.57825777 28.46566124 -30.86240901 29.82609943 -31.99609375 32.16015625 C-33.66276042 33.82682292 -35.32942708 35.49348958 -36.99609375 37.16015625 C-50.00377466 52.20138296 -53.09071088 69.64995218 -52.18652344 88.92382812 C-51.85825602 92.77886597 -50.94550684 96.33472223 -49.65234375 99.96875 C-48.90809639 102.45400458 -48.88687587 104.57988376 -48.99609375 107.16015625 C-55.53897145 103.9215412 -56.71101028 98.74750032 -58.99609375 92.16015625 C-65.69629737 71.22894164 -64.31083546 51.01528495 -54.359375 31.5078125 C-50.13496665 23.57119897 -45.78278739 18.09555699 -38.01171875 13.44921875 C-35.97878398 12.25924532 -35.97878398 12.25924532 -34.54296875 10.65234375 C-26.10996601 2.51747747 -11.14731403 0.89440289 0 0 Z " fill="#030202" transform="translate(92.99609375,90.83984375)"/>
<path d="M0 0 C0 0.66 0 1.32 0 2 C0.99 2.33 1.98 2.66 3 3 C4.76615097 4.61897173 6.37514074 6.24744178 8 8 C8.52722656 8.53367187 9.05445313 9.06734375 9.59765625 9.6171875 C15.30494527 15.6754943 19.16964933 22.68069948 23 30 C23.44859375 30.83402344 23.8971875 31.66804688 24.359375 32.52734375 C30.88187581 46.35220959 28.5433023 64.56254082 23.77734375 78.6015625 C17.43704429 93.40148158 4.91143748 108.94608646 -10 116 C-12.96498342 117.14037824 -15.94517035 118.13022211 -19 119 C-18.12590096 115.15396422 -17.52866961 113.39342855 -14.3125 111 C-12.6728125 110.01 -12.6728125 110.01 -11 109 C-9.7080679 108.00600326 -8.43721911 106.98407547 -7.1875 105.9375 C-6.60355469 105.45152344 -6.01960938 104.96554688 -5.41796875 104.46484375 C-3.74088054 102.9436631 -3.74088054 102.9436631 -3 100 C-2.34 100 -1.68 100 -1 100 C-0.71898437 99.43023437 -0.43796875 98.86046875 -0.1484375 98.2734375 C0.59214304 96.80739031 1.35627311 95.3528917 2.1484375 93.9140625 C11.18085932 77.05737719 13.35531056 58.49485489 8.1875 40.109375 C1.79434604 21.46267594 -9.75342559 7.63601739 -27.0390625 -1.62890625 C-34.73527409 -5.10361094 -42.71738536 -6.60824918 -51 -8 C-51 -9.32 -51 -10.64 -51 -12 C-33.9281248 -16.84799701 -14.85408549 -7.25472157 0 0 Z " fill="#020202" transform="translate(208,15)"/>
<path d="M0 0 C10.37285233 -0.35162211 18.22167175 4.07484904 27 9 C27.98226562 9.53882813 28.96453125 10.07765625 29.9765625 10.6328125 C30.64429688 11.08398438 31.31203125 11.53515625 32 12 C32 12.66 32 13.32 32 14 C32.58910156 14.26425781 33.17820313 14.52851563 33.78515625 14.80078125 C39.89399743 18.10839014 44.29553907 24.27492402 48 30 C48 30.66 48 31.32 48 32 C48.66 32 49.32 32 50 32 C51.25664978 34.90600261 52 36.79604584 52 40 C52.66 40 53.32 40 54 40 C59.31525066 61.35591783 59.64217889 80.19659269 49 100 C48.34 100 47.68 100 47 100 C46.94328125 100.53625 46.8865625 101.0725 46.828125 101.625 C45.61976806 105.0904765 43.22942632 107.38462602 40.75 110 C40.03263672 110.78117187 40.03263672 110.78117187 39.30078125 111.578125 C28.70501501 122.9491912 12.68956014 132.0461006 -3.046875 133.08984375 C-5 133 -5 133 -8 132 C-7.01 130.02 -7.01 130.02 -6 128 C-5.34 128.33 -4.68 128.66 -4 129 C-3.505 128.01 -3.505 128.01 -3 127 C-2.01 127 -1.02 127 0 127 C6.73223049 124.17304607 12.57212422 120.85652044 18 116 C18.66 116 19.32 116 20 116 C20 115.34 20 114.68 20 114 C21.31200404 112.64567325 22.64631404 111.31266518 24 110 C24.33 109.34 24.66 108.68 25 108 C25.66 108 26.32 108 27 108 C27.3403125 107.01 27.3403125 107.01 27.6875 106 C28.7619176 103.54418834 29.84604163 101.64641056 31.3125 99.4375 C40.56436696 84.84801749 43.2553135 67.78728997 39.75 50.91796875 C37.1398887 40.76300447 33.664443 32.13947062 27 24 C26.30777344 23.14535156 25.61554688 22.29070313 24.90234375 21.41015625 C18.86210013 14.32591991 12.37039327 7.7697876 3 6 C0 2.79310345 0 2.79310345 0 0 Z " fill="#020202" transform="translate(210,7)"/>
<path d="M0 0 C1.31097656 0.01353516 1.31097656 0.01353516 2.6484375 0.02734375 C3.30070312 0.03894531 3.95296875 0.05054688 4.625 0.0625 C4.295 1.0525 3.965 2.0425 3.625 3.0625 C1.25390625 4.01953125 1.25390625 4.01953125 -1.8125 4.875 C-17.06454347 9.67623498 -29.17804975 20.20833388 -36.5859375 34.37890625 C-44.21375279 50.86760471 -45.72366158 66.96086034 -39.84765625 84.21875 C-36.36067837 93.65815294 -29.29953398 105.2967427 -20.19140625 110.25 C-19.59199219 110.518125 -18.99257812 110.78625 -18.375 111.0625 C-17.735625 111.7225 -17.09625 112.3825 -16.4375 113.0625 C-14.19491276 115.23713005 -12.31280321 116.08323226 -9.375 117.0625 C-9.375 117.7225 -9.375 118.3825 -9.375 119.0625 C-8.385 119.3925 -7.395 119.7225 -6.375 120.0625 C-6.375 120.7225 -6.375 121.3825 -6.375 122.0625 C-13.69492961 122.56982185 -17.9626504 121.34763566 -24.25 117.6875 C-24.99507812 117.275 -25.74015625 116.8625 -26.5078125 116.4375 C-29.54806697 114.74239409 -32.47677963 112.99464691 -35.375 111.0625 C-35.375 110.4025 -35.375 109.7425 -35.375 109.0625 C-36.035 109.0625 -36.695 109.0625 -37.375 109.0625 C-37.375 108.4025 -37.375 107.7425 -37.375 107.0625 C-38.035 107.0625 -38.695 107.0625 -39.375 107.0625 C-39.375 106.4025 -39.375 105.7425 -39.375 105.0625 C-40.86 104.5675 -40.86 104.5675 -42.375 104.0625 C-50.75275916 95.68474084 -55.48322591 85.39638877 -58.375 74.0625 C-58.56835938 73.40636719 -58.76171875 72.75023437 -58.9609375 72.07421875 C-62.02517334 57.18665783 -57.87404992 40.87641055 -50.375 28.0625 C-49.715 28.0625 -49.055 28.0625 -48.375 28.0625 C-48.148125 27.36125 -47.92125 26.66 -47.6875 25.9375 C-46.03658712 22.32121465 -44.0841165 19.97480024 -41.375 17.0625 C-40.715 17.0625 -40.055 17.0625 -39.375 17.0625 C-39.375 16.4025 -39.375 15.7425 -39.375 15.0625 C-38.715 15.0625 -38.055 15.0625 -37.375 15.0625 C-37.045 14.4025 -36.715 13.7425 -36.375 13.0625 C-33.05843331 10.02231387 -30.77302336 8.79550389 -26.375 8.0625 C-26.045 7.4025 -25.715 6.7425 -25.375 6.0625 C-23.17810525 5.12845601 -20.940654 4.28872162 -18.6875 3.5 C-17.46675781 3.06558594 -16.24601562 2.63117188 -14.98828125 2.18359375 C-9.92403034 0.61230725 -5.29139332 -0.07150532 0 0 Z " fill="#020101" transform="translate(137.375,131.9375)"/>
<path d="M0 0 C2.65037918 0.03370629 3.83690946 0.13763532 5.83496094 1.92138672 C7.24685361 3.8773067 8.46359642 5.86375097 9.6484375 7.96484375 C12.22630678 12.98210505 12.22630678 12.98210505 16.2734375 16.52734375 C16.35464844 15.99625 16.43585938 15.46515625 16.51953125 14.91796875 C17.57008894 11.58666663 19.32784162 9.12932212 21.3359375 6.27734375 C22.06941406 5.1996875 22.80289063 4.12203125 23.55859375 3.01171875 C26.5001288 0.31989675 26.75439063 0.22253695 30.44311523 0.37207031 C31.70712158 0.42331055 32.97112793 0.47455078 34.2734375 0.52734375 C34.34746543 6.0448918 34.40198116 11.56215231 34.43823242 17.08007812 C34.45334075 18.95805901 34.47382844 20.83600451 34.49975586 22.71386719 C34.53604996 25.40959394 34.55314295 28.10485521 34.56640625 30.80078125 C34.58189011 31.64353607 34.59737396 32.48629089 34.61332703 33.35458374 C34.61401367 35.72021484 34.61401367 35.72021484 34.2734375 39.52734375 C31.2734375 41.52734375 31.2734375 41.52734375 28.2734375 41.52734375 C26.90504387 38.7905565 27.05708932 36.48469951 26.95703125 33.42578125 C26.91513672 32.2140625 26.87324219 31.00234375 26.83007812 29.75390625 C26.79076172 28.48289063 26.75144531 27.211875 26.7109375 25.90234375 C26.66775391 24.62359375 26.62457031 23.34484375 26.58007812 22.02734375 C26.4737394 18.86081293 26.3730608 15.69409296 26.2734375 12.52734375 C22.9734375 17.14734375 19.6734375 21.76734375 16.2734375 26.52734375 C12.1027444 25.48467047 11.73303024 25.3701342 9.5234375 22.08984375 C9.09546875 21.47238281 8.6675 20.85492188 8.2265625 20.21875 C7.2734375 18.52734375 7.2734375 18.52734375 7.2734375 16.52734375 C5.9534375 16.19734375 4.6334375 15.86734375 3.2734375 15.52734375 C3.2734375 23.77734375 3.2734375 32.02734375 3.2734375 40.52734375 C-0.7265625 41.52734375 -0.7265625 41.52734375 -2.9765625 40.58984375 C-3.8428125 40.06390625 -3.8428125 40.06390625 -4.7265625 39.52734375 C-4.75121099 34.13387387 -4.76939781 28.7404365 -4.78149414 23.34692383 C-4.78653481 21.510655 -4.79336727 19.67439021 -4.80200195 17.83813477 C-4.81407922 15.20457974 -4.81979331 12.57107759 -4.82421875 9.9375 C-4.82938004 9.11145767 -4.83454132 8.28541534 -4.83985901 7.43434143 C-4.84005455 5.46498007 -4.78860402 3.49572761 -4.7265625 1.52734375 C-3.7265625 0.52734375 -3.7265625 0.52734375 0 0 Z " fill="#020101" transform="translate(149.7265625,173.47265625)"/>
<path d="M0 0 C0.495 0.99 0.495 0.99 1 2 C1.66 2 2.32 2 3 2 C1.58833777 5.86275735 -0.22104454 9.16446954 -2.4375 12.625 C-3.03433594 13.56601563 -3.63117188 14.50703125 -4.24609375 15.4765625 C-5.70939499 17.58189124 -7.11413001 19.28137842 -9 21 C-8.32453125 21.86882812 -7.6490625 22.73765625 -6.953125 23.6328125 C-6.05197828 24.79679368 -5.15094253 25.96086077 -4.25 27.125 C-3.8065625 27.69476563 -3.363125 28.26453125 -2.90625 28.8515625 C-0.10681841 32.47435632 2.50346654 36.16187146 5 40 C4.505 40.99 4.505 40.99 4 42 C1.25 42.25 1.25 42.25 -2 42 C-5.30956451 39.17085615 -7.72889293 35.77954989 -10.25 32.25 C-10.95640625 31.26515625 -11.6628125 30.2803125 -12.390625 29.265625 C-12.92171875 28.51796875 -13.4528125 27.7703125 -14 27 C-16.52588702 29.36292656 -17.88820837 30.66462511 -19 34 C-19.99 34.495 -19.99 34.495 -21 35 C-22.0064275 36.66279327 -23.00585407 38.32983484 -24 40 C-25.6875 41.8125 -25.6875 41.8125 -27 43 C-28.98 42.34 -30.96 41.68 -33 41 C-31.40013936 36.03657693 -28.47460168 32.29801238 -25.375 28.1875 C-24.6015625 27.14819336 -24.6015625 27.14819336 -23.8125 26.08789062 C-22.54657074 24.38826337 -21.27394735 22.69362565 -20 21 C-24.11612699 14.60421299 -24.11612699 14.60421299 -28.875 8.6875 C-31 6 -31 6 -31 2 C-27.80078125 1.625 -27.80078125 1.625 -24 2 C-21.99371565 4.03967184 -20.67899078 5.63913758 -19.1875 8 C-17.83106631 10.03809325 -16.44547815 12.02166738 -15 14 C-14.34 14 -13.68 14 -13 14 C-11.250042 11.85571821 -11.250042 11.85571821 -9.5 9.1875 C-8.58734375 7.84751953 -8.58734375 7.84751953 -7.65625 6.48046875 C-6.43677378 4.65413054 -5.2181491 2.82722366 -4 1 C-2.68 1.33 -1.36 1.66 0 2 C0 1.34 0 0.68 0 0 Z " fill="#020101" transform="translate(302,172)"/>
<path d="M0 0 C0.94875 0.350625 1.8975 0.70125 2.875 1.0625 C3.25563221 3.3885857 3.58769945 5.72305264 3.875 8.0625 C3.545 8.3925 3.215 8.7225 2.875 9.0625 C2.75445914 10.47969482 2.69549828 11.90225425 2.6640625 13.32421875 C2.62152344 14.63229492 2.62152344 14.63229492 2.578125 15.96679688 C2.52659523 17.80254498 2.48216615 19.63850801 2.4453125 21.47460938 C2.22029336 27.8642154 1.16746208 32.21668501 -2.9375 37.3125 C-6.99985501 40.56238401 -10.6011937 41.27719576 -15.6875 40.8125 C-20.86539054 40.04058667 -24.3608328 39.15830554 -27.875 35.125 C-31.12434122 30.70228556 -31.24607692 27.7891154 -31.22265625 22.42578125 C-31.21943359 21.12705078 -31.21621094 19.82832031 -31.21289062 18.49023438 C-31.20453531 17.11848892 -31.19607037 15.74674413 -31.1875 14.375 C-31.18248335 12.99153805 -31.17792073 11.60807437 -31.17382812 10.22460938 C-31.16202529 6.83719605 -31.14556019 3.44986967 -31.125 0.0625 C-29.12545254 0.01995644 -27.12458364 0.02169217 -25.125 0.0625 C-23.33970584 1.84779416 -23.91028423 4.50878376 -23.84375 6.92578125 C-23.80636719 8.12267578 -23.76898438 9.31957031 -23.73046875 10.55273438 C-23.69566406 11.81408203 -23.66085938 13.07542969 -23.625 14.375 C-23.55606229 16.85037443 -23.48330734 19.32564628 -23.40625 21.80078125 C-23.37595703 22.90462158 -23.34566406 24.00846191 -23.31445312 25.14575195 C-23.15447116 27.60877324 -22.83083574 29.70888073 -22.125 32.0625 C-19.48218479 32.9434384 -16.89189789 33.23562268 -14.125 33.375 C-13.465 33.41238281 -12.805 33.44976562 -12.125 33.48828125 C-9.10819288 32.8460313 -8.03388344 31.45152756 -6.125 29.0625 C-5.48428071 25.8794119 -5.48428071 25.8794119 -5.515625 22.328125 C-5.48339844 21.03261719 -5.45117188 19.73710937 -5.41796875 18.40234375 C-5.40322531 17.03906698 -5.38890778 15.67578555 -5.375 14.3125 C-5.34683186 12.93355624 -5.31690322 11.55464725 -5.28515625 10.17578125 C-5.21443275 6.80462784 -5.16174496 3.4341672 -5.125 0.0625 C-3.125 -0.9375 -3.125 -0.9375 0 0 Z " fill="#020101" transform="translate(220.125,173.9375)"/>
<path d="M0 0 C1.54300781 -0.00386719 1.54300781 -0.00386719 3.1171875 -0.0078125 C10.28032614 0.30848193 10.28032614 0.30848193 13 2.9375 C14.125 5.125 14.125 5.125 13.8125 7.375 C13.585625 7.9525 13.35875 8.53 13.125 9.125 C12.320625 8.980625 11.51625 8.83625 10.6875 8.6875 C5.52581392 7.87249693 0.35643067 7.125 -4.875 7.125 C-5.535 9.105 -6.195 11.085 -6.875 13.125 C-6.2459375 13.30675781 -5.616875 13.48851562 -4.96875 13.67578125 C-2.26375175 14.4701708 0.43045386 15.29590888 3.125 16.125 C3.88554687 16.3415625 4.64609375 16.558125 5.4296875 16.78125 C9.00410058 17.91427151 11.05892284 19.05396706 13.625 21.8125 C15.44457963 25.83073835 15.97236513 28.79306195 15.125 33.125 C12.6785139 38.11206782 10.24020469 40.11099955 5.125 42.125 C2.26528377 42.25409416 -0.24314367 42.23906063 -3.0625 42 C-3.77341797 41.96390625 -4.48433594 41.9278125 -5.21679688 41.890625 C-8.19058773 41.67801154 -10.39572605 41.45824517 -12.875 39.734375 C-13.875 38.125 -13.875 38.125 -13.6875 35.5 C-12.875 33.125 -12.875 33.125 -10.875 32.125 C-10.029375 32.434375 -9.18375 32.74375 -8.3125 33.0625 C-4.13350283 34.35419004 -0.22257467 34.68811443 4.125 34.125 C5.115 33.465 6.105 32.805 7.125 32.125 C7.3752157 29.04134129 7.3752157 29.04134129 7.125 26.125 C5.805 25.795 4.485 25.465 3.125 25.125 C3.125 24.465 3.125 23.805 3.125 23.125 C2.54492188 23.09921875 1.96484375 23.0734375 1.3671875 23.046875 C-4.23668771 22.63999297 -7.52184174 21.71635557 -11.875 18.125 C-13.8401843 14.1946314 -13.34409886 9.4102815 -12.875 5.125 C-9.49679875 0.23243267 -5.63478816 -0.01405184 0 0 Z " fill="#020101" transform="translate(239.875,172.875)"/>
<path d="M0 0 C2.94198558 2.94198558 2.4720903 6.18916116 2.625 10.1484375 C2.65859619 10.95737457 2.69219238 11.76631165 2.72680664 12.59976196 C2.79268099 14.31272206 2.85282867 16.02591044 2.90771484 17.73925781 C2.99945803 20.35952093 3.13398232 22.97543751 3.26953125 25.59375 C3.32818257 27.25772081 3.38425704 28.92178486 3.4375 30.5859375 C3.48406738 31.36834808 3.53063477 32.15075867 3.57861328 32.95687866 C3.62109375 35.18115234 3.62109375 35.18115234 3 39 C-0.02734375 41.52587891 -0.02734375 41.52587891 -3 43 C-5.58995441 39.11506838 -5.25225542 35.89432764 -5.1953125 31.39453125 C-5.19106766 30.13572395 -5.19106766 30.13572395 -5.18673706 28.85148621 C-5.17554385 26.17167897 -5.15044101 23.49220619 -5.125 20.8125 C-5.11496908 18.99544754 -5.10584343 17.17838983 -5.09765625 15.36132812 C-5.07560734 10.90742325 -5.04108351 6.45376833 -5 2 C-3.35 1.34 -1.7 0.68 0 0 Z " fill="#020001" transform="translate(264,173)"/>
<path d="M0 0 C1.65 0 3.3 0 5 0 C5 0.66 5 1.32 5 2 C4.34 2 3.68 2 3 2 C2.67 2.99 2.34 3.98 2 5 C1.01 5.33 0.02 5.66 -1 6 C-1.33 5.01 -1.66 4.02 -2 3 C-1.34 3 -0.68 3 0 3 C0 2.01 0 1.02 0 0 Z " fill="#0B0809" transform="translate(61,54)"/>
<path d="" fill="#000000" transform="translate(0,0)"/>
<path d="" fill="#000000" transform="translate(0,0)"/>
</svg>
